<svg width="95.00000000000001" height="95.00000000000001" xmlns="http://www.w3.org/2000/svg">

 <g>
  <title>background</title>
  <rect fill="none" id="canvas_background" height="97" width="97" y="-1" x="-1"/>
 </g>
 <g>
  <title>Layer 1</title>
  <ellipse stroke="null" ry="15.392796" rx="16.850281" id="svg_18" cy="30.15394" cx="46.186286" stroke-opacity="null" stroke-width="null" fill="#ffffff"/>
  <path id="svg_3" fill="#3e3c3c" d="m45.310548,49.687524c-10.26562,0 -18.61816,-8.35205 -18.61816,-18.61767s8.35254,-18.61768 18.61816,-18.61768s18.61817,8.35205 18.61817,18.61768s-8.35254,18.61767 -18.61817,18.61767zm0,-33.23535c-8.06054,0 -14.61816,6.55762 -14.61816,14.61768s6.55762,14.61767 14.61816,14.61767s14.61817,-6.55761 14.61817,-14.61767s-6.55762,-14.61768 -14.61817,-14.61768z"/>
  <path id="svg_5" fill="#cc0f0f" d="m14.098638,71.837434c-1.10449,0 -2,-0.89551 -2,-2c0,-13.19922 14.82715,-23.93799 33.05273,-23.93799c8.41016,0 16.41504,2.27246 22.54102,6.39892c0.91601,0.61719 1.1582,1.85987 0.54199,2.77588c-0.61816,0.91602 -1.85937,1.16016 -2.77637,0.54151c-5.47265,-3.68604 -12.68457,-5.71631 -20.30664,-5.71631c-16.01953,0 -29.05273,8.94433 -29.05273,19.93799c0,1.10449 -0.89551,2 -2,2z"/>
  <path id="svg_7" fill="#b7b2b2" d="m70.529298,59.041534c-0.53027,0 -1.04004,-0.21973 -1.41015,-0.58985s-0.58985,-0.89013 -0.58985,-1.41015c0,-0.52979 0.21973,-1.04004 0.58985,-1.41992c0.75,-0.73975 2.08008,-0.73975 2.83008,0c0.36914,0.37988 0.58007,0.89013 0.58007,1.41992c0,0.52002 -0.21093,1.04004 -0.58007,1.41015c-0.37012,0.37012 -0.89063,0.58985 -1.41993,0.58985z"/>
  <path id="svg_9" fill="#cc0f0f" d="m73.239258,62.651884c-0.53027,0 -1.05078,-0.22021 -1.42089,-0.59033c-0.36914,-0.36963 -0.57911,-0.88965 -0.57911,-1.40967c0,-0.53027 0.20997,-1.04004 0.57911,-1.42041c0.74023,-0.73975 2.09082,-0.73975 2.83007,0c0.38086,0.37012 0.59082,0.89014 0.59082,1.42041c0,0.52002 -0.20996,1.04004 -0.59082,1.40967c-0.36914,0.37012 -0.87988,0.59033 -1.40918,0.59033z"/>
  <path id="svg_11" fill="#a32f2f" d="m75.938478,71.671904c-0.51953,0 -1.04004,-0.22022 -1.40918,-0.59033c-0.37011,-0.36963 -0.58007,-0.88965 -0.58007,-1.40967c0,-0.53027 0.20996,-1.04004 0.58007,-1.42041c0.75977,-0.75 2.08985,-0.73975 2.82911,0c0.37011,0.38037 0.59082,0.89014 0.59082,1.42041c0,0.52978 -0.22071,1.04004 -0.59082,1.40967c-0.36915,0.37011 -0.88965,0.59033 -1.41993,0.59033z"/>
  <path id="svg_13" fill="#3e3c3c" d="m75.039068,67.161654c-0.52051,0 -1.04004,-0.21973 -1.41016,-0.58985s-0.58984,-0.89013 -0.58984,-1.41015c0,-0.52979 0.21973,-1.04004 0.58984,-1.41993c0.75,-0.74023 2.08008,-0.74023 2.83008,0c0.37012,0.37989 0.58008,0.89014 0.58008,1.41993c0,0.52002 -0.20996,1.04003 -0.58008,1.41015c-0.37988,0.37012 -0.89062,0.58985 -1.41992,0.58985z"/>
  <path id="svg_15" fill="#3e3c3c" d="m85.749028,34.651884l-16,0c-1.10449,0 -2,-0.89551 -2,-2s0.89551,-2 2,-2l16,0c1.10449,0 2,0.89551 2,2s-0.89551,2 -2,2z"/>
  <path id="svg_17" fill="#cc0f0f" d="m77.749028,42.651884c-1.10449,0 -2,-0.89551 -2,-2l0,-16c0,-1.10449 0.89551,-2 2,-2s2,0.89551 2,2l0,16c0,1.10449 -0.89551,2 -2,2z"/>
  <line stroke="null" stroke-linecap="null" stroke-linejoin="null" id="svg_21" y2="79.900775" x2="81.65178" y1="70.18421" x1="16.550743" fill-opacity="null" stroke-opacity="null" stroke-width="null" fill="none"/>
  <path id="svg_24" d="m18.170168,48.483854c0,0 -4.85828,16.84206 -4.85828,16.84206c0,0 5.18217,-18.78538 5.1496,-19.01025c0.03257,0.22487 14.93131,-0.09901 14.93131,-0.09901" fill-opacity="null" stroke-opacity="null" stroke-width="null" stroke="null" fill="#ffffff"/>
  <path id="svg_25" d="m33.392803,46.216651" opacity="0.5" fill-opacity="null" stroke-opacity="null" stroke-width="null" stroke="null" fill="#ffffff"/>
 </g>
</svg>