<svg width="25" height="25" xmlns="http://www.w3.org/2000/svg">
 <title/>
 <desc/>

 <g>
  <title>background</title>
  <rect fill="none" id="canvas_background" height="27" width="27" y="-1" x="-1"/>
 </g>
 <g>
  <title>Layer 1</title>
  <path stroke="null" id="document-add" d="m14.935591,16.433758l0,-1.291219l0.44056,0l0,1.291219l1.321679,0l0,0.430406l-1.321679,0l0,1.291219l-0.44056,0l0,-1.291219l-1.321679,0l0,-0.430406l1.321679,0l0,0zm-1.648944,1.721625l-4.520026,0c-0.487475,0 -0.879982,-0.38681 -0.879982,-0.863967l0,-9.893035c0,-0.477316 0.395037,-0.863967 0.882335,-0.863967l4.624659,0l0,0l0.22028,0l2.643357,3.012844l0,0.215203l0,4.777385c0.784566,0.391825 1.321679,1.189191 1.321679,2.109116c0,1.307389 -1.084847,2.367235 -2.423077,2.367235c-0.752449,0 -1.424792,-0.335071 -1.869224,-0.860813l0,0l0,0zm-0.289646,-0.430406l-4.229261,0c-0.240215,0 -0.440542,-0.191823 -0.440542,-0.428452l0,-9.903253c0,-0.232505 0.196375,-0.428452 0.438612,-0.428452l4.407543,0l0,2.149484c0,0.481784 0.39408,0.863361 0.880198,0.863361l1.763159,0l0,4.39317c-0.210072,-0.058045 -0.431744,-0.089107 -0.660839,-0.089107c-1.33823,0 -2.423077,1.059845 -2.423077,2.367235c0,0.38746 0.095284,0.753181 0.264208,1.076016l0,0l0,0zm0.616911,-10.544954l0,1.933049c0,0.239792 0.198538,0.434185 0.439123,0.434185l1.631484,0l-2.070608,-2.367235l0,0zm1.541958,11.405767c1.094914,0 1.982518,-0.867148 1.982518,-1.936828c0,-1.06968 -0.887604,-1.936828 -1.982518,-1.936828c-1.094914,0 -1.982518,0.867148 -1.982518,1.936828c0,1.06968 0.887604,1.936828 1.982518,1.936828l0,0z"/>
  <line stroke-linecap="null" stroke-linejoin="null" id="svg_1" y2="2.467106" x2="15.941294" y1="2.710021" x1="4.200404" fill-opacity="null" stroke-opacity="null" stroke-width="null" stroke="null" fill="none"/>
 </g>
</svg>