<svg width="25" height="25" xmlns="http://www.w3.org/2000/svg">
 <title/>
 <desc/>

 <g>
  <title>background</title>
  <rect fill="none" id="canvas_background" height="27" width="27" y="-1" x="-1"/>
 </g>
 <g>
  <title>Layer 1</title>
  <path stroke="null" id="cloud-add" d="m12.278893,13.070403l0,-0.962648c0,-0.104309 0.098994,-0.194112 0.221106,-0.194112c0.118544,0 0.221106,0.086907 0.221106,0.194112l0,0.962648l1.104018,0c0.119627,0 0.222618,0.086317 0.222618,0.192793c0,0.103364 -0.09967,0.192793 -0.222618,0.192793l-1.104018,0l0,0.962648c0,0.104309 -0.098994,0.194112 -0.221106,0.194112c-0.118544,0 -0.221106,-0.086907 -0.221106,-0.194112l0,-0.962648l-1.104018,0c-0.119627,0 -0.222618,-0.086317 -0.222618,-0.192793c0,-0.103364 0.09967,-0.192793 0.222618,-0.192793l1.104018,0l0,0zm-3.935241,-0.731785c-0.785546,0.157932 -1.371304,0.772122 -1.371304,1.502959c0,0.851815 0.795071,1.542346 1.770095,1.542346l7.515111,0c0.977598,0 1.770095,-0.692267 1.770095,-1.542346c0,-0.723916 -0.574239,-1.331346 -1.345156,-1.497437l0,0c0.012209,-0.077711 0.01852,-0.157065 0.01852,-0.237703c0,-0.958291 -0.890934,-1.735139 -1.989954,-1.735139c-0.541949,0 -1.033299,0.188903 -1.392168,0.495317c-0.438206,-0.751574 -1.33346,-1.26649 -2.366635,-1.26649c-1.465363,0 -2.653272,1.035797 -2.653272,2.313519c0,0.145169 0.015336,0.287216 0.044668,0.424974l0,0l0,0zm8.799286,-0.265137c0.781964,0.297195 1.326924,0.977003 1.326924,1.768096c0,1.062599 -0.989817,1.927933 -2.210813,1.927933l-7.518101,0c-1.223579,0 -2.210813,-0.863166 -2.210813,-1.927933c0,-0.790788 0.548193,-1.47232 1.331899,-1.769248l0,0c-0.003493,-0.052505 -0.005262,-0.105416 -0.005262,-0.158684c0,-1.490674 1.385897,-2.699106 3.095485,-2.699106c1.016181,0 1.917993,0.426952 2.482375,1.086352c0.371029,-0.19985 0.808284,-0.315178 1.276427,-0.315178c1.330625,0 2.411679,0.931724 2.431879,2.08777l0,0l0,0z"/>
 </g>
</svg>