<svg width="128" height="128" xmlns="http://www.w3.org/2000/svg">

 <g>
  <title>background</title>
  <rect fill="none" id="canvas_background" height="402" width="582" y="-1" x="-1"/>
 </g>
 <g>
  <title>Layer 1</title>
  <rect stroke="null" id="svg_3" height="61.536521" width="90.361523" y="33.909856" x="18.819239" stroke-opacity="null" stroke-width="3" fill="#ffffff"/>
  <path stroke-width="3" transform="rotate(90 63.99999999999999,66.11938476562501) " id="svg_2" fill="#3e3c3c" d="m86,17.619382l-44,0c-5.5,0 -10,4.5 -10,10l0,16.3l4,0l0,-16.3c0,-3.3 2.7,-6 6,-6l44,0c3.3,0 6,2.7 6,6l0,77c0,3.3 -2.7,6 -6,6l-44,0c-3.3,0 -6,-2.7 -6,-6l0,-17.3l-4,0l0,17.3c0,5.5 4.5,10 10,10l44,0c5.5,0 10,-4.5 10,-10l0,-77c0,-5.5 -4.5,-10 -10,-10z"/>
  <path stroke-width="3" transform="rotate(90 63.35224914550781,43.59578704833985) " id="svg_1" fill="#cc0f0f" d="m44.002248,25.895785l-16.3,16.4c-0.4,0.4 -0.6,0.9 -0.6,1.4c0,0.6 0.2,1.1 0.6,1.4l16.2,16.2c0.8,0.8 2,0.8 2.8,0c0.4,-0.4 0.6,-0.9 0.6,-1.4s-0.2,-1.1 -0.6,-1.4l-12.8,-12.9l63.7,0c1.1,0 2,-0.9 2,-2s-0.9,-2 -2,-2l-63.7,0l12.9,-12.9c0.4,-0.4 0.6,-0.9 0.6,-1.4s-0.2,-1 -0.6,-1.4c-0.7,-0.8 -2,-0.8 -2.8,0z"/>
 </g>
</svg>