<svg width="512" height="512" xmlns="http://www.w3.org/2000/svg">

 <g>
  <title>background</title>
  <rect fill="none" id="canvas_background" height="402" width="582" y="-1" x="-1"/>
 </g>
 <g>
  <title>Layer 1</title>
  <path fill="#cc0f0f" id="XMLID_8568_" d="m360,210l-200,0c-5.523,0 -10,-4.477 -10,-10l0,-30c0,-60.654 49.346,-110 110,-110s110,49.346 110,110l0,30c0,5.523 -4.478,10 -10,10zm-190,-20l180,0l0,-20c0,-49.626 -40.374,-90 -90,-90s-90,40.374 -90,90l0,20z"/>
  <path fill="#3E3C3C" id="XMLID_8565_" d="m410,440l-300,0c-5.523,0 -10,-4.478 -10,-10l0,-230c0,-5.523 4.477,-10 10,-10l300,0c5.522,0 10,4.477 10,10l0,230c0,5.522 -4.478,10 -10,10zm-290,-20l280,0l0,-210l-280,0l0,210z"/>
  <path fill="#cc0f0f" id="XMLID_8562_" d="m260,340c-22.056,0 -40,-17.944 -40,-40s17.944,-40 40,-40c22.056,0 40,17.944 40,40s-17.944,40 -40,40zm0,-60c-11.028,0 -20,8.972 -20,20s8.972,20 20,20c11.028,0 20,-8.972 20,-20s-8.972,-20 -20,-20z"/>
  <path fill="#cc0f0f" id="XMLID_8561_" d="m260,370c-5.523,0 -10,-4.478 -10,-10l0,-30c0,-5.522 4.477,-10 10,-10c5.522,0 10,4.478 10,10l0,30c0,5.522 -4.478,10 -10,10z"/>
 </g>
</svg>