<svg width="512" height="512" xmlns="http://www.w3.org/2000/svg">

 <g>
  <title>background</title>
  <rect fill="none" id="canvas_background" height="402" width="582" y="-1" x="-1"/>
 </g>
 <g>
  <title>Layer 1</title>
  <path fill="#3E3C3C" id="XMLID_8641_" d="m456,301c-5.522,0 -10,-4.478 -10,-10l0,-113.333c0,-25.732 -20.935,-46.667 -46.667,-46.667l-286.666,0c-25.732,0 -46.667,20.935 -46.667,46.667c0,5.523 -4.477,10 -10,10s-10,-4.477 -10,-10c0,-36.761 29.906,-66.667 66.667,-66.667l286.667,0c36.76,0 66.666,29.906 66.666,66.667l0,113.333c0,5.522 -4.478,10 -10,10z"/>
  <path fill="#3E3C3C" id="XMLID_8640_" d="m456,301c-2.56,0 -5.118,-0.977 -7.071,-2.929l-30,-30c-3.905,-3.905 -3.905,-10.237 0,-14.143c3.906,-3.905 10.236,-3.905 14.143,0l22.928,22.929l22.929,-22.929c3.906,-3.905 10.236,-3.905 14.143,0c3.905,3.905 3.905,10.237 0,14.143l-30,30c-1.954,1.952 -4.512,2.929 -7.072,2.929z"/>
  <path fill="#cc0f0f" id="XMLID_8639_" d="m399.333,401l-286.666,0c-36.761,0 -66.667,-29.906 -66.667,-66.667l0,-113.333c0,-5.523 4.477,-10 10,-10s10,4.477 10,10l0,113.333c0,25.732 20.935,46.667 46.667,46.667l286.667,0c25.731,0 46.666,-20.935 46.666,-46.667c0,-5.522 4.478,-10 10,-10s10,4.478 10,10c0,36.761 -29.906,66.667 -66.667,66.667z"/>
  <path fill="#cc0f0f" id="XMLID_8638_" d="m86,261c-2.559,0 -5.119,-0.977 -7.071,-2.929l-22.929,-22.929l-22.929,22.929c-3.905,3.904 -10.237,3.904 -14.143,0c-3.905,-3.905 -3.905,-10.237 0,-14.143l30,-30c3.905,-3.905 10.237,-3.905 14.143,0l30,30c3.905,3.905 3.905,10.237 0,14.143c-1.952,1.952 -4.512,2.929 -7.071,2.929z"/>
 </g>
</svg>