<svg width="32" height="32" xmlns="http://www.w3.org/2000/svg">

 <g>
  <title>background</title>
  <rect fill="none" id="canvas_background" height="402" width="582" y="-1" x="-1"/>
 </g>
 <g>
  <title>Layer 1</title>
  <path id="svg_2" fill="#3e3c3c" d="m27,13l-1,0l0,-4c0,-1.65 -1.35,-3 -3,-3l-1.18,0l-11.64,0l-1.18,0c-1.65,0 -3,1.35 -3,3l0,14c0,1.65 1.35,3 3,3l1.18,0l11.64,0l1.18,0c1.65,0 3,-1.35 3,-3l0,-4l1,0c0.5527,0 1,-0.4478 1,-1l0,-4c0,-0.5522 -0.4473,-1 -1,-1zm-10,7c-1.02,0 -1.97,-0.31 -2.76,-0.82l-2.53,2.53c-0.2,0.19 -0.45,0.29 -0.71,0.29s-0.51,-0.1 -0.71,-0.29c-0.39,-0.39 -0.39,-1.03 0,-1.42l2.53,-2.53c-0.51,-0.79 -0.82,-1.74 -0.82,-2.76c0,-2.76 2.24,-5 5,-5s5,2.24 5,5s-2.24,5 -5,5z"/>
  <path id="svg_3" fill="#cc0f0f" d="m19.38,4l2.04,0l-0.44,-2.2c-0.09,-0.46 -0.5,-0.8 -0.98,-0.8l-8,0c-0.48,0 -0.89,0.34 -0.98,0.8l-0.44,2.2l2.04,0l6.76,0z"/>
  <path id="svg_4" fill="#cc0f0f" d="m12.62,28l-2.04,0l0.44,2.2c0.09,0.46 0.5,0.8 0.98,0.8l8,0c0.48,0 0.89,-0.34 0.98,-0.8l0.44,-2.2l-2.04,0l-6.76,0z"/>
  <path id="svg_5" fill="#a32f2f" d="m17,12c-1.65,0 -3,1.35 -3,3c0,0.82 0.34,1.58 0.88,2.12c0.54,0.54 1.3,0.88 2.12,0.88c1.65,0 3,-1.35 3,-3c0,-1.65 -1.35,-3 -3,-3z"/>
 </g>
</svg>