<svg width="512" height="512" xmlns="http://www.w3.org/2000/svg">

 <g>
  <title>background</title>
  <rect fill="none" id="canvas_background" height="402" width="582" y="-1" x="-1"/>
 </g>
 <g>
  <title>Layer 1</title>
  <path fill="#3E3C3C" id="XMLID_8635_" d="m51,181.086c-5.523,0 -10,-4.477 -10,-10l0,-74.586c0,-30.603 24.897,-55.5 55.5,-55.5l74.586,0c5.523,0 10,4.477 10,10s-4.477,10 -10,10l-74.586,0c-19.575,0 -35.5,15.925 -35.5,35.5l0,74.586c0,5.523 -4.477,10 -10,10z"/>
  <path fill="#3E3C3C" id="XMLID_8634_" d="m415.5,471l-74.586,0c-5.522,0 -10,-4.478 -10,-10s4.478,-10 10,-10l74.586,0c19.575,0 35.5,-15.925 35.5,-35.5l0,-74.586c0,-5.522 4.478,-10 10,-10s10,4.478 10,10l0,74.586c0,30.603 -24.897,55.5 -55.5,55.5z"/>
  <path fill="#cc0f0f" id="XMLID_8633_" d="m141.012,441.001c-0.375,0 -0.752,-0.021 -1.133,-0.064c-5.488,-0.619 -9.435,-5.569 -8.816,-11.058c6.759,-59.902 24.403,-116.53 52.44,-168.313c22.413,-41.393 51.469,-79.772 86.362,-114.073c59.418,-58.409 114.591,-84.477 116.91,-85.558c5.006,-2.334 10.956,-0.166 13.288,4.84c2.334,5.006 0.167,10.955 -4.839,13.288c-0.861,0.405 -55.038,26.176 -111.879,82.223c-52.336,51.609 -117.793,140.314 -132.408,269.835c-0.576,5.108 -4.904,8.879 -9.925,8.88z"/>
  <path fill="#cc0f0f" id="XMLID_8632_" d="m302.371,204.767c-16.197,0 -33.791,-1.285 -52.718,-3.858c-5.473,-0.744 -9.306,-5.783 -8.562,-11.256c0.744,-5.472 5.781,-9.307 11.256,-8.562c101.768,13.834 130.872,-16.399 131.154,-16.706l-0.129,0.148l15.256,12.932c-0.947,1.118 -9.927,11.137 -33.169,18.672c-17.736,5.75 -38.846,8.63 -63.088,8.63z"/>
  <path fill="#cc0f0f" id="XMLID_8631_" d="m261.03,276.339c-20.76,0 -43.524,-4.164 -65.06,-16.695c-4.773,-2.778 -6.391,-8.9 -3.613,-13.673c2.778,-4.773 8.899,-6.391 13.673,-3.613c53.57,31.172 119.966,-0.046 120.629,-0.366c4.977,-2.391 10.948,-0.298 13.343,4.671c2.396,4.971 0.318,10.938 -4.648,13.341c-2.036,0.982 -34.475,16.335 -74.324,16.335z"/>
 </g>
</svg>