<svg width="64" height="64" xmlns="http://www.w3.org/2000/svg">

 <g>
  <title>background</title>
  <rect fill="none" id="canvas_background" height="402" width="582" y="-1" x="-1"/>
 </g>
 <g>
  <title>Layer 1</title>
  <path opacity="0.2" id="svg_5" fill="#231F20" d="m48,52.5c-0.64,0 -1.28,-0.244 -1.768,-0.732l-12,-12c-0.977,-0.977 -0.977,-2.559 0,-3.535c0.976,-0.977 2.56,-0.977 3.535,0l12,12c0.977,0.977 0.977,2.559 0,3.535c-0.487,0.488 -1.127,0.732 -1.767,0.732z"/>
  <path id="svg_7" fill="#4F5D73" d="m48,50.5c-0.64,0 -1.28,-0.244 -1.768,-0.732l-12,-12c-0.977,-0.977 -0.977,-2.559 0,-3.535c0.976,-0.977 2.56,-0.977 3.535,0l12,12c0.977,0.977 0.977,2.559 0,3.535c-0.487,0.488 -1.127,0.732 -1.767,0.732z"/>
  <ellipse id="svg_9" transform="matrix(0.7071,-0.7071,0.7071,0.7071,-11.7579,28.386) " ry="10.567" rx="10.567" fill="#77B3D4" cy="28.386" cx="28.386"/>
  <path opacity="0.2" id="svg_12" fill="#231F20" d="m28.386,19.819c2.704,0 5.409,1.032 7.472,3.095c4.127,4.127 4.127,10.817 0,14.944c-2.063,2.063 -4.768,3.095 -7.472,3.095s-5.409,-1.032 -7.472,-3.095c-4.127,-4.127 -4.127,-10.817 0,-14.944c2.063,-2.063 4.768,-3.095 7.472,-3.095zm0,-4c-3.891,0 -7.549,1.515 -10.3,4.267c-5.68,5.68 -5.68,14.921 0,20.601c2.751,2.751 6.409,4.267 10.3,4.267s7.549,-1.515 10.3,-4.267c5.68,-5.68 5.68,-14.921 0,-20.601c-2.751,-2.752 -6.409,-4.267 -10.3,-4.267l0,0z"/>
  <path id="svg_14" fill="#cc0f0f" d="m28.386,17.819c2.704,0 5.409,1.032 7.472,3.095c4.127,4.127 4.127,10.817 0,14.944c-2.063,2.063 -4.768,3.095 -7.472,3.095s-5.409,-1.032 -7.472,-3.095c-4.127,-4.127 -4.127,-10.817 0,-14.944c2.063,-2.063 4.768,-3.095 7.472,-3.095m0,-4c-3.891,0 -7.549,1.515 -10.3,4.267c-5.68,5.68 -5.68,14.921 0,20.601c2.751,2.751 6.409,4.267 10.3,4.267s7.549,-1.515 10.3,-4.267c5.68,-5.68 5.68,-14.921 0,-20.601c-2.751,-2.752 -6.409,-4.267 -10.3,-4.267l0,0z"/>
 </g>
</svg>