<?xml version="1.0" ?><!DOCTYPE svg  PUBLIC '-//W3C//DTD SVG 1.1//EN'  'http://www.w3.org/Graphics/SVG/1.1/DTD/svg11.dtd'><svg enable-background="new 0 0 128 128" id="Слой_1" version="1.1" viewBox="0 0 128 128" xml:space="preserve" xmlns="http://www.w3.org/2000/svg" xmlns:xlink="http://www.w3.org/1999/xlink"><g><path d="M69.7,74H43.2l10-9.2c0.9-0.9,1-2.3,0.1-3.2c-0.9-0.9-2.3-1-3.2-0.1L35.7,74.6c0,0,0,0.1-0.1,0.1   c-0.1,0.2-0.3,0.3-0.4,0.5c0,0.1-0.1,0.1-0.1,0.2c0,0,0,0,0,0.1c-0.1,0.2-0.1,0.5-0.1,0.7c0,0,0,0.1,0,0.1c0,0.2,0,0.4,0.1,0.7   c0,0.1,0.1,0.2,0.1,0.2c0.1,0.2,0.2,0.4,0.3,0.5c0,0,0,0.1,0.1,0.1c0,0,0.1,0.1,0.1,0.1c0,0,0,0,0,0.1l14.3,13.1   c0.4,0.4,1,0.6,1.5,0.6c0.6,0,1.2-0.3,1.7-0.7c0.9-0.9,0.8-2.4-0.1-3.2l-10-9.2h26.5c1.3,0,2.3-1,2.3-2.3S71,74,69.7,74z" fill="#4A374F"/><path d="M92.8,50.8c0-0.1-0.1-0.1-0.1-0.2c-0.1-0.2-0.2-0.4-0.4-0.5c0,0,0-0.1-0.1-0.1L77.9,36.9   c-0.9-0.9-2.4-0.8-3.2,0.1c-0.9,0.9-0.8,2.4,0.1,3.2l10,9.2H58.3c-1.3,0-2.3,1-2.3,2.3c0,1.3,1,2.3,2.3,2.3h26.5l-10,9.2   c-0.9,0.9-1,2.3-0.1,3.2c0.5,0.5,1.1,0.7,1.7,0.7c0.6,0,1.1-0.2,1.5-0.6l14.3-13.1c0,0,0,0,0-0.1c0,0,0.1-0.1,0.1-0.1   c0,0,0-0.1,0.1-0.1c0.1-0.2,0.2-0.3,0.3-0.5c0-0.1,0.1-0.1,0.1-0.2C93,52.2,93,52,93,51.7c0,0,0-0.1,0-0.1   C93,51.4,92.9,51.1,92.8,50.8C92.8,50.9,92.8,50.9,92.8,50.8z" fill="#4A374F"/></g></svg>