<svg width="32" height="32" xmlns="http://www.w3.org/2000/svg">

 <g>
  <title>background</title>
  <rect fill="none" id="canvas_background" height="402" width="582" y="-1" x="-1"/>
 </g>
 <g>
  <title>Layer 1</title>
  <path id="XMLID_832_" fill="#FFFFFF" d="m23.995,13.089c0.001,-0.03 0.005,-0.059 0.005,-0.089c0,-4.418 -3.582,-8 -8,-8c-3.814,0 -6.998,2.671 -7.8,6.242c-2.992,0.796 -5.2,3.515 -5.2,6.758c0,3.866 3.134,7 7,7l13,0c3.314,0 6,-2.686 6,-6c0,-2.974 -2.166,-5.436 -5.005,-5.911z"/>
  <path id="XMLID_471_" fill="#a32f2f" d="m5,18c0,-3.243 2.208,-5.962 5.2,-6.758c0.731,-3.254 3.441,-5.753 6.801,-6.173c-0.329,-0.041 -0.661,-0.069 -1.001,-0.069c-3.814,0 -6.998,2.671 -7.8,6.242c-2.992,0.796 -5.2,3.515 -5.2,6.758c0,3.866 3.134,7 7,7l2,0c-3.866,0 -7,-3.134 -7,-7z"/>
  <path id="XMLID_472_" fill="#cc0f0f" d="m23.995,13.089c0.001,-0.03 0.005,-0.059 0.005,-0.089c0,-4.418 -3.582,-8 -8,-8c-2.714,0 -5.104,1.357 -6.549,3.424c1.291,-0.897 2.857,-1.424 4.549,-1.424c4.073,0 7.478,3.054 7.942,7.067c0.069,0.599 0.49,1.081 1.058,1.282c2.415,0.853 4.121,3.203 3.993,5.939c-0.05,1.06 -0.392,2.035 -0.939,2.87c1.762,-1.046 2.946,-2.961 2.946,-5.158c0,-2.974 -2.166,-5.436 -5.005,-5.911z"/>
  <path stroke-width="2" stroke-miterlimit="10" stroke-linejoin="round" stroke-linecap="round" stroke="#3e3c3c" id="XMLID_831_" fill="none" d="m23.995,12.278693c0.001,-0.03 0.005,-0.059 0.005,-0.089c0,-4.418 -3.582,-8 -8,-8c-3.814,0 -6.998,2.671 -7.8,6.242c-2.992,0.796 -5.2,3.515 -5.2,6.758c0,3.866 3.134,7 7,7l13,0c3.314,0 6,-2.686 6,-6c0,-2.974 -2.166,-5.436 -5.005,-5.911z"/>
  <path id="XMLID_473_" fill="#b7b2b2" d="m21,17c0,0.553 -0.448,1 -1,1l-8,0c-0.552,0 -1,-0.447 -1,-1c0,-0.552 0.448,-1 1,-1l8,0c0.552,0 1,0.448 1,1z"/>
  <path id="XMLID_474_" fill="#3e3c3c" d="m20,16l-8,0c-0.436,0 -0.797,0.283 -0.934,0.672c0.155,-0.099 0.329,-0.172 0.527,-0.172l8,0c0.552,0 1,0.448 1,1c0,0.117 -0.03,0.224 -0.066,0.328c0.278,-0.177 0.473,-0.474 0.473,-0.828c0,-0.552 -0.448,-1 -1,-1z"/>
 </g>
</svg>