<svg width="25" height="25" xmlns="http://www.w3.org/2000/svg">
 <title/>
 <desc/>

 <g>
  <title>background</title>
  <rect fill="none" id="canvas_background" height="27" width="27" y="-1" x="-1"/>
 </g>
 <g>
  <title>Layer 1</title>
  <path stroke="null" id="cloud-add" d="m12.245907,12.536959l0,-1.152903c0,-0.124924 0.113763,-0.232476 0.254093,-0.232476c0.13623,0 0.254093,0.104083 0.254093,0.232476l0,1.152903l1.268729,0c0.137475,0 0.255831,0.103377 0.255831,0.230896c0,0.123793 -0.11454,0.230896 -0.255831,0.230896l-1.268729,0l0,1.152903c0,0.124924 -0.113763,0.232476 -0.254093,0.232476c-0.13623,0 -0.254093,-0.104083 -0.254093,-0.232476l0,-1.152903l-1.268729,0c-0.137475,0 -0.255831,-0.103377 -0.255831,-0.230896c0,-0.123793 0.11454,-0.230896 0.255831,-0.230896l1.268729,0l0,0zm-4.522351,-0.876414c-0.902743,0.189146 -1.575893,0.924722 -1.575893,1.799999c0,1.020165 0.91369,1.847171 2.034181,1.847171l8.636313,0c1.123449,0 2.034181,-0.829084 2.034181,-1.847171c0,-0.866988 -0.659911,-1.594469 -1.545844,-1.793386l0,0c0.014031,-0.09307 0.021283,-0.188107 0.021283,-0.284681c0,-1.147685 -1.023854,-2.078068 -2.286841,-2.078068c-0.622803,0 -1.18746,0.226237 -1.599869,0.59321c-0.503583,-0.900113 -1.532402,-1.516796 -2.71972,-1.516796c-1.683984,0 -3.049122,1.240509 -3.049122,2.770757c0,0.17386 0.017624,0.34398 0.051332,0.508965l0,0l0,0zm10.112078,-0.317538c0.898627,0.355931 1.524891,1.170095 1.524891,2.117537c0,1.272609 -1.13749,2.308964 -2.54065,2.308964l-8.639748,0c-1.406128,0 -2.54065,-1.03376 -2.54065,-2.308964c0,-0.947077 0.629979,-1.763305 1.530608,-2.118918l0,0c-0.004015,-0.062882 -0.006047,-0.12625 -0.006047,-0.190046c0,-1.785286 1.592663,-3.23255 3.557309,-3.23255c1.167788,0 2.204144,0.511334 2.852728,1.301055c0.426384,-0.239347 0.928874,-0.377469 1.466861,-0.377469c1.529145,0 2.771484,1.115867 2.794698,2.500391l0,0l0,0z"/>
 </g>
</svg>