<svg width="80" height="80" xmlns="http://www.w3.org/2000/svg">

 <g>
  <title>background</title>
  <rect fill="none" id="canvas_background" height="82" width="82" y="-1" x="-1"/>
 </g>
 <g>
  <title>Layer 1</title>
  <ellipse stroke="null" ry="15.384611" rx="15.222667" id="svg_15" cy="26.232353" cx="41.262699" stroke-width="null" fill="#ffffff"/>
  <path stroke="null" id="svg_3" fill="#cc0f0f" d="m41.011886,45.087827c-10.26562,0 -18.61718,-8.35205 -18.61718,-18.61767s8.35156,-18.61768 18.61718,-18.61768s18.61817,8.35205 18.61817,18.61768s-8.35254,18.61767 -18.61817,18.61767zm0,-33.23535c-8.05957,0 -14.61718,6.55762 -14.61718,14.61768s6.55761,14.61767 14.61718,14.61767c8.06055,0 14.61817,-6.55761 14.61817,-14.61767s-6.55762,-14.61768 -14.61817,-14.61768z"/>
  <path id="svg_5" fill="#3e3c3c" d="m9.800956,67.237737c-1.1045,0 -2,-0.89551 -2,-2c0,-13.19922 14.82714,-23.93799 33.05175,-23.93799c8.41016,0 16.41602,2.27246 22.542,6.39892c0.91601,0.61719 1.1582,1.85987 0.54199,2.77588c-0.61719,0.91602 -1.8584,1.16016 -2.77637,0.54151c-5.47266,-3.68604 -12.68457,-5.71631 -20.30762,-5.71631c-16.01953,0 -29.05175,8.94433 -29.05175,19.93799c0,1.10449 -0.89551,2 -2,2z"/>
  <path id="svg_7" fill="#a32f2f" d="m66.230636,54.441837c-0.5205,0 -1.04004,-0.21973 -1.41015,-0.58985s-0.58985,-0.89013 -0.58985,-1.41015c0,-0.52979 0.21973,-1.04004 0.58985,-1.41992c0.73047,-0.73975 2.08984,-0.73975 2.83007,0c0.37012,0.37988 0.58008,0.89013 0.58008,1.41992c0,0.52002 -0.20996,1.04004 -0.58008,1.41015c-0.37988,0.37012 -0.88964,0.58985 -1.41992,0.58985z"/>
  <path id="svg_9" fill="#3e3c3c" d="m68.940596,58.052187c-0.53027,0 -1.04004,-0.22021 -1.41015,-0.59033c-0.37989,-0.36963 -0.58985,-0.88965 -0.58985,-1.40967c0,-0.53027 0.20996,-1.04004 0.58985,-1.42041c0.74023,-0.73975 2.08008,-0.73975 2.82031,0c0.37988,0.38037 0.58984,0.89014 0.58984,1.42041c0,0.52002 -0.20996,1.04004 -0.58984,1.40967c-0.37012,0.37012 -0.89062,0.59033 -1.41016,0.59033z"/>
  <path id="svg_11" fill="#cc0f0f" d="m106.948798,100.472695c-0.53027,0 -1.0498,-0.20996 -1.41992,-0.59033c-0.37011,-0.36963 -0.58008,-0.88965 -0.58008,-1.40967c0,-0.53027 0.20997,-1.04004 0.58008,-1.42041c0.75,-0.73975 2.08008,-0.73975 2.83008,0c0.37012,0.38037 0.58984,0.89014 0.58984,1.42041c0,0.52002 -0.21972,1.04004 -0.58984,1.40967c-0.37012,0.38037 -0.89062,0.59033 -1.41016,0.59033z"/>
  <path id="svg_13" fill="#b7b2b2" d="m70.740406,62.561957c-0.51953,0 -1.04004,-0.21973 -1.41016,-0.58985s-0.58984,-0.89013 -0.58984,-1.41015c0,-0.52979 0.21973,-1.04981 0.58984,-1.41993c0.75,-0.74023 2.08008,-0.74023 2.83008,0c0.37012,0.37989 0.58008,0.89014 0.58008,1.41993c0,0.52002 -0.20996,1.04003 -0.58008,1.41015c-0.37988,0.37012 -0.88965,0.58985 -1.41992,0.58985z"/>
 </g>
</svg>