<svg width="300" height="300" xmlns="http://www.w3.org/2000/svg">
 <title/>
 <desc/>

 <g>
  <title>background</title>
  <rect fill="none" id="canvas_background" height="302" width="302" y="-1" x="-1"/>
 </g>
 <g>
  <title>Layer 1</title>
  <ellipse stroke="null" ry="134.460862" rx="133.44222" id="svg_1" cy="148.46912" cx="148.858186" stroke-opacity="null" stroke-width="null" fill="#ffffff"/>
  <path stroke="null" id="Shape" fill="#cc0f0f" d="m251.63,45.216286c-11.295,-11.295 -23.931,-20.472 -37.556,-27.276c-2.966,-1.482 -6.568,-0.277 -8.048,2.687c-1.48,2.965 -0.277,6.568 2.687,8.048c12.467,6.226 24.052,14.646 34.432,25.026c52.801,52.801 52.801,138.714 0,191.515c-52.801,52.801 -138.714,52.801 -191.515,0c-52.801,-52.801 -52.801,-138.714 0,-191.515c25.577,-25.578 59.585,-39.664 95.756,-39.664c3.313,0 6,-2.687 6,-6c0,-3.313 -2.687,-6 -6,-6c-39.377,0 -76.397,15.334 -104.242,43.179c-57.479,57.479 -57.479,151.006 0,208.485c28.74,28.74 66.491,43.11 104.243,43.11c37.752,0 75.503,-14.37 104.243,-43.11c57.479,-57.479 57.479,-151.006 0,-208.485z"/>
  <path id="Shape" fill="#4f4f4f" d="m147.387,54.029286c-3.313,0 -6,2.687 -6,6l0,178.859c0,3.314 2.687,6 6,6c3.313,0 6,-2.686 6,-6l0,-178.859c0,-3.314 -2.687,-6 -6,-6z"/>
  <path id="Shape" fill="#4f4f4f" d="m171.387,155.458286l65.43,0c3.313,0 6,-2.687 6,-6c0,-3.313 -2.687,-6 -6,-6l-65.43,0c-3.313,0 -6,2.687 -6,6c0,3.313 2.686,6 6,6z"/>
  <path id="Shape" fill="#4f4f4f" d="m57.957,143.458286c-3.313,0 -6,2.687 -6,6c0,3.313 2.687,6 6,6l63.43,0c3.313,0 6,-2.687 6,-6c0,-3.313 -2.687,-6 -6,-6l-63.43,0z"/>
 </g>
</svg>