<svg width="512" height="512" xmlns="http://www.w3.org/2000/svg">

 <g>
  <title>background</title>
  <rect fill="none" id="canvas_background" height="402" width="582" y="-1" x="-1"/>
 </g>
 <g>
  <title>Layer 1</title>
  <path fill="#3E3C3C" id="XMLID_8594_" d="m168.988,261.462c-43.274,0 -78.481,-35.207 -78.481,-78.481s35.207,-78.481 78.481,-78.481s78.481,35.207 78.481,78.481s-35.206,78.481 -78.481,78.481zm0,-136.962c-32.247,0 -58.481,26.234 -58.481,58.481s26.234,58.481 58.481,58.481s58.481,-26.234 58.481,-58.481s-26.234,-58.481 -58.481,-58.481z"/>
  <path fill="#cc0f0f" id="XMLID_8591_" d="m475.023,407.5l-174.023,0c-5.522,0 -10,-4.478 -10,-10l0,-13.201c0,-35.122 -15.16,-68.564 -41.594,-91.753c-2.165,-1.898 -3.406,-4.639 -3.406,-7.518s1.241,-5.619 3.405,-7.518c25.894,-22.714 59.137,-35.224 93.606,-35.224c78.306,0 142.012,63.706 142.012,142.012l0,13.202c0,5.522 -4.477,10 -10,10zm-164.023,-20l154.023,0l0,-3.201c0,-67.277 -54.734,-122.012 -122.012,-122.012c-25.936,0 -51.063,8.242 -71.847,23.397c25.447,26.376 39.836,61.697 39.836,98.615l0,3.201z"/>
  <path fill="#3E3C3C" id="XMLID_8588_" d="m301,407.5l-264.023,0c-5.523,0 -10,-4.478 -10,-10l0,-13.201c0,-78.306 63.706,-142.012 142.012,-142.012c34.469,0 67.713,12.509 93.606,35.224l0,0c30.761,26.985 48.405,65.908 48.405,106.788l0,13.201c0,5.522 -4.478,10 -10,10zm-254.023,-20l244.023,0l0,-3.201c0,-35.122 -15.16,-68.564 -41.595,-91.753l0,0c-22.243,-19.513 -50.803,-30.259 -80.417,-30.259c-67.277,0 -122.012,54.734 -122.012,122.012l0,3.201l0.001,0z"/>
  <path fill="#cc0f0f" id="XMLID_8585_" d="m343.012,261.462c-43.274,0 -78.481,-35.207 -78.481,-78.481s35.207,-78.481 78.481,-78.481s78.48,35.207 78.48,78.481s-35.206,78.481 -78.48,78.481zm0,-136.962c-32.247,0 -58.481,26.234 -58.481,58.481s26.234,58.481 58.481,58.481c32.246,0 58.48,-26.234 58.48,-58.481s-26.234,-58.481 -58.48,-58.481z"/>
 </g>
</svg>